<svg width="70" height="70" viewBox="0 0 70 70" fill="none" xmlns="http://www.w3.org/2000/svg">
<path d="M39.3382 35.4999L65.9981 8.84008C67.334 7.50403 67.334 5.33796 65.9981 4.00204C64.662 2.66599 62.4958 2.66599 61.1599 4.00204L34.4999 30.6619L7.84008 4.00204C6.50403 2.66599 4.33796 2.66599 3.00204 4.00204C1.66611 5.33809 1.66599 7.50416 3.00204 8.84008L29.6619 35.4999L3.00204 62.1597C1.66599 63.4958 1.66599 65.6619 3.00204 66.9978C4.33809 68.3338 6.50416 68.3337 7.84008 66.9978L34.4999 40.338L61.1596 66.9978C62.4957 68.3338 64.6619 68.3337 65.9978 66.9978C67.3337 65.6617 67.3337 63.4957 65.9978 62.1597L39.3382 35.4999Z" fill="white"/>
</svg>
