<svg width="128" height="128" viewBox="0 0 128 128" fill="none" xmlns="http://www.w3.org/2000/svg">
<g clip-path="url(#clip0)">
<path d="M36.3333 42.6667C36.3333 44.8526 37.3763 46.6882 39.0259 48.169C40.6595 49.6354 42.9259 50.7945 45.5237 51.6931C50.7246 53.492 57.5108 54.3333 63.9999 54.3333C70.489 54.3333 77.2752 53.492 82.4761 51.6931C85.0739 50.7945 87.3404 49.6354 88.9739 48.169C90.6235 46.6882 91.6666 44.8526 91.6666 42.6667C91.6666 40.4808 90.6235 38.6451 88.9739 37.1643C87.3404 35.698 85.0739 34.5388 82.4761 33.6403C77.2752 31.8413 70.489 31 63.9999 31C57.5108 31 50.7246 31.8413 45.5237 33.6403C42.9259 34.5388 40.6595 35.698 39.0259 37.1643C37.3763 38.6451 36.3333 40.4808 36.3333 42.6667ZM43.8002 42.6667C43.9568 42.5176 44.2033 42.3259 44.5597 42.104C45.3775 41.5948 46.6518 41.0014 48.3917 40.4372C51.8631 39.3116 57.0908 38.3333 63.9999 38.3333C70.909 38.3333 76.1368 39.3116 79.6081 40.4372C81.348 41.0014 82.6223 41.5948 83.4401 42.104C83.7965 42.3259 84.0431 42.5176 84.1996 42.6667C84.0431 42.8158 83.7965 43.0074 83.4401 43.2293C82.6223 43.7385 81.348 44.3319 79.6081 44.8961C76.1368 46.0218 70.909 47 63.9999 47C57.0908 47 51.8631 46.0218 48.3917 44.8961C46.6518 44.3319 45.3775 43.7385 44.5597 43.2293C44.2033 43.0074 43.9568 42.8158 43.8002 42.6667ZM43.6281 42.8634C43.628 42.8634 43.629 42.8612 43.6317 42.8568C43.6296 42.8611 43.6283 42.8633 43.6281 42.8634ZM84.3717 42.8634C84.3716 42.8633 84.3702 42.8612 84.3681 42.8568C84.3708 42.8612 84.3719 42.8634 84.3717 42.8634ZM84.3681 42.4765C84.3702 42.4722 84.3716 42.47 84.3717 42.47C84.3719 42.47 84.3708 42.4721 84.3681 42.4765ZM43.6317 42.4765C43.629 42.4721 43.628 42.47 43.6281 42.47C43.6283 42.47 43.6296 42.4722 43.6317 42.4765Z" fill="white" stroke="white" stroke-width="2"/>
<path d="M36.3333 74.6667C36.3333 76.8526 37.3763 78.6882 39.0259 80.169C40.6595 81.6354 42.9259 82.7945 45.5237 83.6931C50.7246 85.492 57.5108 86.3333 63.9999 86.3333C70.489 86.3333 77.2752 85.492 82.4761 83.6931C85.0739 82.7945 87.3404 81.6354 88.9739 80.169C90.6235 78.6882 91.6666 76.8526 91.6666 74.6667V42.6667C91.6666 40.6424 90.0242 39 87.9999 39C85.9756 39 84.3333 40.6424 84.3333 42.6667V74.5244C84.3173 74.5442 84.2955 74.5694 84.2663 74.6001C84.1172 74.7568 83.8521 74.9729 83.4401 75.2293C82.6223 75.7385 81.348 76.3319 79.6081 76.8961C76.1368 78.0218 70.909 79 63.9999 79C57.0908 79 51.8631 78.0218 48.3917 76.8961C46.6518 76.3319 45.3775 75.7385 44.5597 75.2293C44.1478 74.9729 43.8826 74.7568 43.7336 74.6001C43.7043 74.5694 43.6825 74.5442 43.6666 74.5244V42.6667C43.6666 40.6424 42.0242 39 39.9999 39C37.9756 39 36.3333 40.6424 36.3333 42.6667V74.6667ZM84.3717 74.47C84.3719 74.47 84.3708 74.4722 84.3681 74.4765C84.3702 74.4722 84.3716 74.47 84.3717 74.47ZM43.6281 74.47C43.6283 74.47 43.6296 74.4722 43.6317 74.4765C43.629 74.4721 43.628 74.47 43.6281 74.47Z" fill="white" stroke="white" stroke-width="2"/>
<path d="M36.3333 58.6667C36.3333 60.8526 37.3763 62.6882 39.0259 64.169C40.6595 65.6354 42.9259 66.7945 45.5237 67.6931C50.7246 69.492 57.5108 70.3333 63.9999 70.3333C70.489 70.3333 77.2752 69.492 82.4761 67.6931C85.0739 66.7945 87.3404 65.6354 88.9739 64.169C90.6235 62.6882 91.6666 60.8526 91.6666 58.6667C91.6666 56.6424 90.0242 55 87.9999 55C86.0245 55 84.4127 56.5641 84.3361 58.5209C84.32 58.5411 84.2973 58.5675 84.2663 58.6001C84.1172 58.7568 83.8521 58.9729 83.4401 59.2293C82.6223 59.7385 81.348 60.3319 79.6081 60.8961C76.1368 62.0218 70.909 63 63.9999 63C57.0908 63 51.8631 62.0218 48.3917 60.8961C46.6518 60.3319 45.3775 59.7385 44.5597 59.2293C44.1478 58.9729 43.8826 58.7568 43.7336 58.6001C43.7025 58.5675 43.6799 58.5411 43.6637 58.5208C43.5871 56.5641 41.9754 55 39.9999 55C37.9756 55 36.3333 56.6424 36.3333 58.6667ZM84.3717 58.47C84.3719 58.47 84.3708 58.4721 84.3681 58.4765C84.3702 58.4722 84.3716 58.47 84.3717 58.47ZM43.6281 58.47C43.6283 58.47 43.6296 58.4722 43.6317 58.4765C43.629 58.4721 43.628 58.47 43.6281 58.47Z" fill="white" stroke="white" stroke-width="2"/>
<path d="M60.3333 114.667C60.3333 116.691 61.9756 118.333 63.9999 118.333C96.8989 118.333 123.667 91.5656 123.667 58.6667C123.667 56.6424 122.024 55 120 55C117.976 55 116.333 56.6424 116.333 58.6667C116.333 87.5224 92.8556 111 63.9999 111C61.9756 111 60.3333 112.642 60.3333 114.667Z" fill="white" stroke="white" stroke-width="2"/>
<path d="M113.386 41.4684L113.387 41.4713C113.915 42.9827 115.336 43.9333 116.853 43.9333C117.251 43.9333 117.656 43.8674 118.044 43.738L118.044 43.7381L118.057 43.7336C119.97 43.0668 120.98 40.9844 120.322 39.0671L120.321 39.0647C112.021 15.1042 89.3855 -1.00001 64 -1.00001C50.4089 -1.00001 37.6594 3.46584 27.1443 11.9138L27.1437 11.9142C25.5685 13.1817 25.3112 15.4844 26.5795 17.0678L26.5809 17.0696C27.8528 18.6502 30.1551 18.8862 31.7322 17.6303L31.7353 17.6278C40.9376 10.2409 52.087 6.33332 64 6.33332C86.2625 6.33332 106.112 20.4532 113.386 41.4684Z" fill="white" stroke="white" stroke-width="2"/>
<path d="M44.117 114.874L44.1214 114.876C44.5213 115.014 44.9304 115.08 45.3333 115.08C46.8491 115.08 48.266 114.136 48.7946 112.623L48.7948 112.623C49.4609 110.712 48.4591 108.621 46.5493 107.952C25.6876 100.643 11.6666 80.8354 11.6666 58.6667C11.6666 48.1158 14.8006 37.994 20.7218 29.3837C21.8734 27.7174 21.4534 25.4359 19.7831 24.2857L19.7831 24.2857L19.7781 24.2823C18.1173 23.1533 15.8349 23.5457 14.6843 25.2321C7.91326 35.064 4.33325 46.6267 4.33325 58.6667C4.33325 83.9434 20.323 106.531 44.117 114.874Z" fill="white" stroke="white" stroke-width="2"/>
<path d="M69.4048 127.928L69.4085 127.932C70.1242 128.64 71.0621 129 72 129C72.9367 129 73.8782 128.641 74.5915 127.921C76.0203 126.491 76.0197 124.168 74.5897 122.738L66.5182 114.667L74.5897 106.595C76.0203 105.165 76.0203 102.841 74.5897 101.41C73.1592 99.9797 70.8354 99.9797 69.4049 101.41L58.7382 112.077C57.3077 113.507 57.3077 115.831 58.7382 117.262L69.4048 127.928Z" fill="white" stroke="white" stroke-width="2"/>
<path d="M18.7198 40.9531L18.7196 40.9521L15.5277 29.038L3.61362 32.2299L3.59998 32.2336L3.59996 32.2335C1.67775 32.7195 -0.350466 31.6077 -0.875576 29.633C-1.39618 27.6752 -0.236105 25.6736 1.71848 25.1465L1.72018 25.146L17.1762 21.0074L17.1842 21.0052L17.1923 21.0032C19.1288 20.5191 21.1391 21.6295 21.6648 23.5973L18.7198 40.9531ZM18.7198 40.9531C19.1606 42.5912 20.6432 43.6667 22.2615 43.6667C22.5851 43.6667 22.8965 43.6214 23.1974 43.5461L23.2068 43.5438L23.2161 43.5413C25.1635 43.0141 26.3313 41.0128 25.8033 39.0472L21.665 23.5981L18.7198 40.9531Z" fill="white" stroke="white" stroke-width="2"/>
<path d="M122.158 27.5L115.991 38.1806L105.313 32.0156C105.313 32.0153 105.312 32.015 105.312 32.0147C103.557 30.9953 101.312 31.5987 100.301 33.3575C99.2907 35.1147 99.8906 37.3523 101.644 38.3647L101.644 38.3647L115.497 46.3628C115.497 46.3632 115.498 46.3636 115.499 46.364C116.081 46.7026 116.714 46.856 117.333 46.856C118.596 46.856 119.827 46.1961 120.507 45.0252L120.509 45.0227L128.509 31.1667L128.51 31.1651C129.52 29.4082 128.92 27.1709 127.167 26.1584C125.406 25.1386 123.168 25.7498 122.158 27.5L122.158 27.5Z" fill="white" stroke="white" stroke-width="2"/>
</g>
<defs>
<clipPath id="clip0">
<rect width="128" height="128" fill="white"/>
</clipPath>
</defs>
</svg>
